<?xml version="1.0" encoding="UTF-8" standalone="no"?>
<svg
   xmlns:dc="http://purl.org/dc/elements/1.1/"
   xmlns:cc="http://creativecommons.org/ns#"
   xmlns:rdf="http://www.w3.org/1999/02/22-rdf-syntax-ns#"
   xmlns:svg="http://www.w3.org/2000/svg"
   xmlns="http://www.w3.org/2000/svg"
   id="svg2"
   viewBox="0 0 14 14"
   height="100%"
   width="100%"
   version="1.1">
  <metadata
     id="metadata8">
    <rdf:RDF>
      <cc:Work
         rdf:about="">
        <dc:format>image/svg+xml</dc:format>
        <dc:type
           rdf:resource="http://purl.org/dc/dcmitype/StillImage" />
        <dc:title></dc:title>
      </cc:Work>
    </rdf:RDF>
  </metadata>
  <defs
     id="defs6" />
  <rect
     style="fill:none;stroke:none;visibility:hidden"
     id="canvas"
     y="0"
     x="0"
     height="14"
     width="14" />
  <path
     style="fill:#000000;fill-opacity:1;stroke-width:0.00994318"
     id="exclamation"
     d="m 8.9090969,11.136367 v 2.22727 q 0,0.25852 -0.188922,0.447441 Q 8.5312529,14 8.2727269,14 h -2.545453 q -0.258519,0 -0.447441,-0.188922 -0.188922,-0.188921 -0.188922,-0.447441 v -2.22727 q 0,-0.258527 0.188922,-0.447449 0.188922,-0.188921 0.447441,-0.188921 h 2.545453 q 0.258526,0 0.447448,0.188921 0.188922,0.188922 0.188922,0.447449 z M 9.2073859,0.63636303 8.9289819,8.2727261 q -0.01,0.2585262 -0.203836,0.4474413 -0.193893,0.1889217 -0.452419,0.1889217 h -2.545453 q -0.258519,0 -0.452412,-0.1889217 Q 5.0809689,8.5312523 5.0710259,8.2727261 L 4.7926149,0.63636303 Q 4.7826639,0.37784347 4.9666229,0.18892174 5.1505739,0 5.4090929,0 h 3.181816 q 0.258525,0 0.442476,0.18892174 0.183944,0.18892173 0.174001,0.44744129 z" />
</svg>
