<?xml version="1.0" encoding="UTF-8" standalone="no"?>
<svg
   xmlns:dc="http://purl.org/dc/elements/1.1/"
   xmlns:cc="http://creativecommons.org/ns#"
   xmlns:rdf="http://www.w3.org/1999/02/22-rdf-syntax-ns#"
   xmlns:svg="http://www.w3.org/2000/svg"
   xmlns="http://www.w3.org/2000/svg"
   version="1.1"
   width="100%"
   height="100%"
   viewBox="0 0 14 14"
   id="svg2">
  <metadata
     id="metadata8">
    <rdf:RDF>
      <cc:Work
         rdf:about="">
        <dc:format>image/svg+xml</dc:format>
        <dc:type
           rdf:resource="http://purl.org/dc/dcmitype/StillImage" />
        <dc:title></dc:title>
      </cc:Work>
    </rdf:RDF>
  </metadata>
  <defs
     id="defs6" />
  <rect
     width="14"
     height="14"
     x="0"
     y="0"
     id="canvas"
     style="fill:none;stroke:none;visibility:hidden" />
  <path
     style="fill:#000000;fill-opacity:1;stroke-width:0.0078125"
     id="map"
     d="m 4.000001,1.15e-6 q 0.101562,0 0.175781,0.074219 0.07422,0.074218 0.07422,0.1757809 V 11.749996 q 0,0.156251 -0.132813,0.21875 l -3.749999,2 q -0.05469,0.03125 -0.117187,0.03125 -0.101563,0 -0.175781,-0.07422 Q 2e-6,13.851556 2e-6,13.749995 V 2.2500031 Q 2e-6,2.0937529 0.132814,2.031253 L 3.882813,0.03125165 Q 3.937503,-3.5e-7 4.000001,-3.5e-7 Z m 9.749996,0 q 0.101563,0 0.175781,0.074219 0.07422,0.074218 0.07422,0.1757809 V 11.749996 q 0,0.156251 -0.132812,0.21875 l -3.749999,2 q -0.05469,0.03125 -0.117187,0.03125 -0.101563,0 -0.175781,-0.07422 -0.07422,-0.07422 -0.07422,-0.175781 V 2.2500031 q 0,-0.1562502 0.132812,-0.2187501 L 13.63281,0.03125395 Q 13.6875,1.95e-6 13.749997,1.15e-6 Z m -8.749996,0 q 0.0625,0 0.109374,0.023441 L 9.109374,2.0234411 q 0.140625,0.078125 0.140625,0.2265628 V 13.749999 q 0,0.101563 -0.07422,0.175781 Q 9.101559,14 8.999998,14 8.937498,14 8.890623,13.97657 L 4.890626,11.976559 Q 4.750001,11.898429 4.750001,11.749996 V 0.25000105 q 0,-0.1015625 0.07422,-0.1757809 Q 4.898441,1.15e-6 5.000003,1.15e-6 Z" />
</svg>
