<?xml version="1.0" encoding="UTF-8" standalone="no"?>
<!-- Created with Inkscape (http://www.inkscape.org/) -->

<svg
   xmlns:dc="http://purl.org/dc/elements/1.1/"
   xmlns:cc="http://creativecommons.org/ns#"
   xmlns:rdf="http://www.w3.org/1999/02/22-rdf-syntax-ns#"
   xmlns:svg="http://www.w3.org/2000/svg"
   xmlns="http://www.w3.org/2000/svg"
   id="svg2"
   viewBox="0 0 14 14"
   height="100%"
   width="100%"
   version="1.1">
  <metadata
     id="metadata8">
    <rdf:RDF>
      <cc:Work
         rdf:about="">
        <dc:format>image/svg+xml</dc:format>
        <dc:type
           rdf:resource="http://purl.org/dc/dcmitype/StillImage" />
        <dc:title></dc:title>
      </cc:Work>
    </rdf:RDF>
  </metadata>
  <defs
     id="defs6" />
  <rect
     width="14"
     height="14"
     x="0"
     y="0"
     id="canvas"
     style="fill:none;stroke:none;visibility:hidden" />
  <path
     style="fill:#000000;fill-opacity:1;stroke-width:1.07692313"
     d="m 5.3846154,1.6153846 c -0.5966154,0 -0.8100616,0.5433077 -1.0769231,1.0769231 L 3.7692308,3.7692308 H 1.6153846 C 0.72046154,3.7692308 0,4.4896923 0,5.3846154 V 10.76923 c 0,0.894923 0.72046154,1.615385 1.6153846,1.615385 H 12.384615 C 13.279538,12.384615 14,11.664153 14,10.76923 V 5.3846154 C 14,4.4896923 13.279538,3.7692308 12.384615,3.7692308 H 10.230769 L 9.6923077,2.6923077 C 9.4230769,2.1538462 9.212,1.6153846 8.6153846,1.6153846 Z M 1.6153846,4.8461539 c 0.2973385,0 0.5384616,0.241123 0.5384616,0.5384615 0,0.2973385 -0.2411231,0.5384615 -0.5384616,0.5384615 -0.2973384,0 -0.5384615,-0.241123 -0.5384615,-0.5384615 0,-0.2973385 0.2411231,-0.5384615 0.5384615,-0.5384615 z m 5.3846154,0 c 1.7843538,0 3.230769,1.4464153 3.230769,3.2307692 0,1.7843538 -1.4464152,3.2307689 -3.230769,3.2307689 -1.7843538,0 -3.2307692,-1.4464151 -3.2307692,-3.2307689 C 3.7692308,6.2925692 5.2156462,4.8461539 7,4.8461539 Z m 0,1.6153846 c -0.8921231,0 -1.6153846,0.7232615 -1.6153846,1.6153846 v 0 c 0,0.8921231 0.7232615,1.6153846 1.6153846,1.6153846 v 0 c 0.8921231,0 1.6153846,-0.7232615 1.6153846,-1.6153846 v 0 C 8.6153846,7.1848 7.8921231,6.4615385 7,6.4615385 Z"
     id="attraction" />
</svg>
