<?xml version="1.0" encoding="UTF-8" standalone="no"?>
<svg
   xmlns:dc="http://purl.org/dc/elements/1.1/"
   xmlns:cc="http://creativecommons.org/ns#"
   xmlns:rdf="http://www.w3.org/1999/02/22-rdf-syntax-ns#"
   xmlns:svg="http://www.w3.org/2000/svg"
   xmlns="http://www.w3.org/2000/svg"
   id="svg2"
   viewBox="0 0 14 14"
   height="100%"
   width="100%"
   version="1.1">
  <metadata
     id="metadata8">
    <rdf:RDF>
      <cc:Work
         rdf:about="">
        <dc:format>image/svg+xml</dc:format>
        <dc:type
           rdf:resource="http://purl.org/dc/dcmitype/StillImage" />
        <dc:title></dc:title>
      </cc:Work>
    </rdf:RDF>
  </metadata>
  <defs
     id="defs6" />
  <rect
     style="fill:none;stroke:none;visibility:hidden"
     id="canvas"
     y="0"
     x="0"
     height="14"
     width="14" />
  <path
     d="m 7.9843999,1.0001215 c -0.1464,0.005 -0.2835,0.0731 -0.375,0.1875 l -1.6602,2.0742 -1.6054,-1.5234 c -0.4359,-0.4011 -1.0839,0.1545 -0.7539,0.6465 l 1.666,2.4004 c 0.1913,0.2756 0.5944,0.2883 0.8027,0.0254 0.1663,-0.2099 0.4414,-0.6778 0.9414,-0.6778 0.5,0 0.7929,0.4907 0.9414,0.6777 0.175,0.2204 0.4973,0.2531 0.7129,0.0723 l 1.6680001,-1.4004 c 0.4408,-0.3741 6e-4,-1.0735 -0.5273001,-0.8379 l -1.295,0.5821 v -1.7266 c 2e-4,-0.2823 -0.2334,-0.50870005 -0.5156,-0.5 z m -3.4844,5 -2.9238,5.9237995 c -0.0769,0.0769 -0.0762,0.231 -0.0762,0.3848 0,0.5385 0.3837,0.6914 0.6914,0.6914 H 11.8086 c 0.3846,0 0.6914,-0.153 0.6914,-0.6914 0,-0.1538 8e-4,-0.2309 -0.0762,-0.3848 L 9.4999999,6.0001215 c -0.5,0 -1,0.5 -1,1 v 0.5 c 0,0.277 -0.223,0.5000004 -0.5,0.5000004 -0.277,0 -0.5,-0.2230004 -0.5,-0.5000004 v -0.5 c 0,-0.2761 -0.2238,-0.5 -0.5,-0.5 -0.2762,0 -0.5,0.2239 -0.5,0.5 v 2.0000004 c 0,0.277 -0.223,0.5 -0.5,0.5 -0.277,0 -0.5,-0.223 -0.5,-0.5 V 7.0001215 c 0,-0.5 -0.5,-1 -1,-1 z"
     style="fill:#000000"
     id="volcano" />
</svg>
