<?xml version="1.0" encoding="UTF-8" standalone="no"?>
<svg
   xmlns:dc="http://purl.org/dc/elements/1.1/"
   xmlns:cc="http://creativecommons.org/ns#"
   xmlns:rdf="http://www.w3.org/1999/02/22-rdf-syntax-ns#"
   xmlns:svg="http://www.w3.org/2000/svg"
   xmlns="http://www.w3.org/2000/svg"
   id="svg2"
   viewBox="0 0 14 14"
   height="100%"
   width="100%"
   version="1.1">
  <metadata
     id="metadata8">
    <rdf:RDF>
      <cc:Work
         rdf:about="">
        <dc:format>image/svg+xml</dc:format>
        <dc:type
           rdf:resource="http://purl.org/dc/dcmitype/StillImage" />
        <dc:title></dc:title>
      </cc:Work>
    </rdf:RDF>
  </metadata>
  <defs
     id="defs6" />
  <rect
     style="fill:none;stroke:none;visibility:hidden"
     id="canvas"
     y="0"
     x="0"
     height="14"
     width="14" />
  <path
     id="ford"
     d="M 4.5,1 1,4 4.5,7 V 5 h 5 V 7 L 13,4 9.5,1 v 2 h -5 z M 3,7.5 c -0.533898,0 -1.492285,1 -2,1 V 10 c 0.537184,0 1.525424,-1 2,-1 0.504237,0 1.466102,1 2,1 0.475502,0 1.492285,-1 2,-1 0.504237,0 1.52173,1 2,1 0.504237,0 1.525424,-1 2,-1 0.474576,0 1.495763,1 2,1 V 8.5 c -0.415254,0 -1.466102,-1.029661 -2,-1 -0.47827,0 -1.465278,1 -2,1 -0.444915,0 -1.495763,-1 -2,-1 -0.504237,0 -1.554097,1 -2,1 -0.475502,0 -1.466102,-1 -2,-1 z m 0,3 c -0.533898,0 -1.492285,1 -2,1 V 13 c 0.537184,0 1.525424,-1 2,-1 0.504237,0 1.466102,1 2,1 0.475502,0 1.492285,-1 2,-1 0.504237,0 1.52173,1 2,1 0.504237,0 1.525424,-1 2,-1 0.474576,0 1.495763,1 2,1 v -1.5 c -0.415254,0 -1.466102,-1.029661 -2,-1 -0.47827,0 -1.465278,1 -2,1 -0.444915,0 -1.495763,-1 -2,-1 -0.504237,0 -1.554097,1 -2,1 -0.475502,0 -1.466102,-1 -2,-1 z" />
</svg>
