<?xml version="1.0" encoding="UTF-8" standalone="no"?>
<svg
   xmlns:dc="http://purl.org/dc/elements/1.1/"
   xmlns:cc="http://creativecommons.org/ns#"
   xmlns:rdf="http://www.w3.org/1999/02/22-rdf-syntax-ns#"
   xmlns:svg="http://www.w3.org/2000/svg"
   xmlns="http://www.w3.org/2000/svg"
   id="svg2"
   viewBox="0 0 14 14"
   height="100%"
   width="100%"
   version="1.1">
  <metadata
     id="metadata8">
    <rdf:RDF>
      <cc:Work
         rdf:about="">
        <dc:format>image/svg+xml</dc:format>
        <dc:type
           rdf:resource="http://purl.org/dc/dcmitype/StillImage" />
        <dc:title></dc:title>
      </cc:Work>
    </rdf:RDF>
  </metadata>
  <defs
     id="defs6" />
  <rect
     style="fill:none;stroke:none;visibility:hidden"
     id="canvas"
     y="0"
     x="0"
     height="14"
     width="14" />
  <path
     style="fill:#000000;fill-opacity:1;stroke-width:0.12725502"
     id="diving"
     d="M 11.102162,0.63936084 C 10.850438,0.63372084 10.603458,0.76387014 10.469863,1 L 8.4847735,4.2740828 6.2634367,5.0119098 C 6.113403,5.0953853 5.9881927,5.222159 5.9025495,5.3767742 L 3.554545,9.464096 c -0.1576684,0.2735984 -0.065783,0.627825 0.2065414,0.786894 0.2709257,0.164032 0.6196224,0.06954 0.7786912,-0.204056 L 6.1794285,7.1767368 8.9433392,6.0506825 C 9.096554,5.9659271 9.2219778,5.839033 9.3059658,5.6858181 L 11.698173,1.7128269 c 0.194191,-0.3416797 0.07788,-0.77923474 -0.259978,-0.97877076 -0.106218,-0.061404 -0.221613,-0.092132 -0.336033,-0.0946953 z M 4.3958701,4.4613832 c -0.5567405,0 -1.011081,0.4560221 -1.011081,1.0205254 0,0.56603 0.4544676,1.0252485 1.011081,1.0252485 0.5585223,0 1.0128207,-0.4592185 1.0128207,-1.0252485 0,-0.5643761 -0.4542984,-1.0205254 -1.0128207,-1.0205254 z M 2.5039459,10.548001 c -0.2723261,0 -0.5326041,0.0634 -0.7617902,0.168513 C 1.5171687,10.819972 1.263418,10.880306 1,10.880306 V 12 c 0.263418,0 0.5171687,-0.06024 0.7421557,-0.162299 0.2291861,-0.108294 0.4894641,-0.171744 0.7617902,-0.171744 0.2690167,0 0.5291182,0.06345 0.7585588,0.171744 C 3.4890191,11.939759 3.739884,12 4.0029206,12 c 0.2615091,0 0.512452,-0.06024 0.7371846,-0.162299 0.2294404,-0.108294 0.489713,-0.171744 0.7620382,-0.171744 0.2691448,0 0.5291183,0.06345 0.7585597,0.171744 C 6.4869624,11.939759 6.7380878,12 7.0008701,12 c 0.2631629,0 0.5141854,-0.06024 0.7391723,-0.162299 0.2293134,-0.108294 0.489089,-0.171744 0.7615422,-0.171744 0.272198,0 0.527641,0.06345 0.7617902,0.171744 C 9.48658,11.939759 9.7376497,12 10.000559,12 c 0.263163,0 0.513938,-0.06024 0.738925,-0.162299 0.232367,-0.108294 0.489336,-0.171744 0.76179,-0.171744 0.270544,0 0.530949,0.06345 0.76179,0.171744 C 12.486325,11.939727 12.736929,11.999962 13,12 v -1.119694 c -0.263164,0 -0.513852,-0.06033 -0.737185,-0.163792 -0.23084,-0.105113 -0.490997,-0.168513 -0.761541,-0.168513 -0.272326,0 -0.529423,0.0634 -0.76179,0.168513 -0.224987,0.103458 -0.47601,0.163792 -0.739174,0.163792 -0.2629082,0 -0.51373,-0.06033 -0.7369352,-0.163792 -0.2341492,-0.105113 -0.489465,-0.168513 -0.7617902,-0.168513 -0.2723261,0 -0.5323497,0.0634 -0.7617902,0.168513 -0.2249869,0.103458 -0.4760094,0.163792 -0.7391732,0.163792 -0.2627814,0 -0.5136588,-0.06033 -0.7399181,-0.163792 -0.2294414,-0.105113 -0.4896638,-0.168513 -0.7588077,-0.168513 -0.2723261,0 -0.5323498,0.0634 -0.7617902,0.168513 -0.2246055,0.103458 -0.4756755,0.163792 -0.7371846,0.163792 -0.2630366,0 -0.5139015,-0.06033 -0.7404159,-0.163792 C 3.0331913,10.611401 2.7730898,10.548001 2.5039459,10.548001 Z" />
</svg>
