<?xml version="1.0" encoding="UTF-8" standalone="no"?>
<svg
   xmlns:dc="http://purl.org/dc/elements/1.1/"
   xmlns:cc="http://creativecommons.org/ns#"
   xmlns:rdf="http://www.w3.org/1999/02/22-rdf-syntax-ns#"
   xmlns:svg="http://www.w3.org/2000/svg"
   xmlns="http://www.w3.org/2000/svg"
   id="svg2"
   viewBox="0 0 14 14"
   height="100%"
   width="100%"
   version="1.1">
  <metadata
     id="metadata8">
    <rdf:RDF>
      <cc:Work
         rdf:about="">
        <dc:format>image/svg+xml</dc:format>
        <dc:type
           rdf:resource="http://purl.org/dc/dcmitype/StillImage" />
        <dc:title></dc:title>
      </cc:Work>
    </rdf:RDF>
  </metadata>
  <defs
     id="defs6" />
  <rect
     style="fill:none;stroke:none;visibility:hidden"
     id="canvas"
     y="0"
     x="0"
     height="14"
     width="14" />
  <path
     style="fill:#000000;fill-opacity:1;stroke-width:0.14"
     id="hide"
     d="m 3.0685025,0.1092405 v 1.905585 h 2.663554 v -1.905585 z m 5.212538,0 v 1.905585 h 2.6651965 v -1.905585 z m 0,2.502226 v 5.265039 c 0,0.25256 0.203674,0.456367 0.456094,0.456367 h 0.03145 0.424648 v 5.1015235 c 0,0.243879 0.197396,0.443789 0.443516,0.443789 h 3.9109765 c 0.2464,0 0.443789,-0.199909 0.443789,-0.443789 v -3.174882 l 0.0085,-0.4645715 -1.695586,-7.183476 z m -6.581093,0.0082 -1.699961,7.184023 0.0085,0.4683975 v 3.175156 c 0,0.24388 0.199629,0.443517 0.443789,0.443517 h 3.910977 c 0.24836,0 0.44789,-0.199636 0.44789,-0.443517 V 8.3435335 h 0.418086 0.03391 c 0.25256,0 0.456367,-0.201893 0.456367,-0.454453 v -5.269414 z m 4.609336,0 v 4.891523 h 1.379218 v -4.891523 z" />
</svg>
