<?xml version="1.0" encoding="UTF-8" standalone="no"?>
<svg
   xmlns:dc="http://purl.org/dc/elements/1.1/"
   xmlns:cc="http://creativecommons.org/ns#"
   xmlns:rdf="http://www.w3.org/1999/02/22-rdf-syntax-ns#"
   xmlns:svg="http://www.w3.org/2000/svg"
   xmlns="http://www.w3.org/2000/svg"
   id="svg2"
   viewBox="0 0 14 14"
   height="100%"
   width="100%"
   version="1.1">
  <metadata
     id="metadata8">
    <rdf:RDF>
      <cc:Work
         rdf:about="">
        <dc:format>image/svg+xml</dc:format>
        <dc:type
           rdf:resource="http://purl.org/dc/dcmitype/StillImage" />
        <dc:title></dc:title>
      </cc:Work>
    </rdf:RDF>
  </metadata>
  <defs
     id="defs6" />
  <rect
     style="fill:none;stroke:none;visibility:hidden"
     id="canvas"
     y="0"
     x="0"
     height="14"
     width="14" />
  <path
     style="fill:#000000;fill-opacity:1;stroke-width:0.14959364"
     id="hot-spring"
     d="m 7.0923958,1.8688179 c -0.065607,0.00184 -0.1314417,0.02096 -0.1922517,0.05843 -0.066571,0.041137 -1.4877089,1.0283986 -1.2715458,2.670189 0.072103,0.5469142 0.3370628,0.7455042 0.5972062,1.3305648 0.2251386,0.5062245 -0.1865346,1.4763096 -0.4429373,2.1267424 -0.075549,0.1911803 -0.043812,0.4177476 0.08006,0.5700336 0.083919,0.1032198 0.198431,0.1583587 0.3149651,0.1583587 0.055646,0 0.1118159,-0.012689 0.1653706,-0.038564 C 7.0494953,8.4029004 8.2454208,7.2799219 7.7176547,5.471335 7.5704545,4.9660073 6.9917588,4.4679424 7.2031347,3.5730732 7.344501,2.9742499 7.5053719,2.5769688 7.5061198,2.5741268 7.574933,2.3747191 7.5307727,2.1461136 7.3953855,2.0017555 7.3107679,1.9113491 7.2017399,1.8658114 7.0924004,1.8688161 Z M 4.7140904,2.5603964 C 4.6485117,2.5620543 4.5828849,2.5792693 4.5221309,2.6129914 4.4555594,2.6500856 3.0344229,3.5384522 3.2505851,5.0158395 3.3228345,5.5081516 3.587648,5.6868952 3.8477913,6.2134649 4.0727801,6.6691275 3.6611079,7.5419946 3.404854,8.1275036 3.329461,8.299387 3.361337,8.5033854 3.485198,8.6405635 c 0.083919,0.092598 0.19799,0.1422889 0.3146729,0.1422889 0.055646,0 0.1118167,-0.011137 0.1653715,-0.034475 C 4.6713249,8.4411121 5.8674076,7.4304032 5.3393428,5.8023756 5.1921418,5.3476108 4.6137383,4.8994398 4.8251142,4.0940278 4.9664805,3.5550425 5.12706,3.1975489 5.127808,3.1950054 5.1967683,3.0156426 5.1523139,2.8097477 5.0167815,2.6799011 4.9321638,2.5984628 4.8233904,2.5576609 4.7140877,2.5604009 Z m 4.8018976,0 c -0.065625,0.00166 -0.1314977,0.018873 -0.1922517,0.052595 -0.066718,0.037094 -1.4878513,0.9254607 -1.2718379,2.402848 0.072249,0.4923121 0.3373549,0.6710557 0.5974983,1.1976254 0.2249887,0.4556626 -0.1868259,1.3285297 -0.4432294,1.9140387 -0.075549,0.1718834 -0.043664,0.3758818 0.080344,0.5130599 0.083772,0.092598 0.1979899,0.1422889 0.3146729,0.1422889 0.055646,0 0.1119656,-0.011137 0.1653706,-0.034475 C 9.472788,8.4411121 10.668564,7.4304032 10.140948,5.8023756 9.993449,5.3476108 9.4150442,4.8994398 9.6267195,4.0940278 9.768086,3.5550425 9.9288147,3.1975489 9.9294129,3.1950054 9.9985286,3.0156426 9.9542119,2.8097477 9.8186779,2.6799011 9.7341613,2.5984628 9.6253624,2.5576609 9.5159853,2.5604009 Z M 10.8112,5.9756308 c -0.149111,0.00533 -0.28463,0.0915 -0.351778,0.227897 -0.07703,0.1560258 -0.04697,0.343752 0.0745,0.4680644 0.0075,0.00745 1.004538,0.9123063 0.865715,1.8103172 -0.18131,1.1723647 -2.6168674,1.6914016 -4.3995746,1.6914016 -1.7827073,0 -4.2187068,-0.5191863 -4.3998643,-1.6914017 C 2.4606293,7.5791112 3.4596318,6.6781739 3.4659148,6.6715922 3.5876837,6.5472798 3.6176027,6.3595536 3.5407099,6.2035278 3.4638199,6.047651 3.2974469,5.9577664 3.1240676,5.9782606 c -0.077487,0.00943 -1.495204,0.2537104 -2.0250652,2.318702 -0.21272199,0.8287481 -0.082311,1.556376 0.3880089,2.1626814 1.3351233,1.721074 4.6843399,1.671533 5.4242299,1.671533 0.045778,0 0.075365,-4.35e-4 0.088532,-5.83e-4 0.012864,1.48e-4 0.043049,5.83e-4 0.088826,5.83e-4 0.7403393,0 4.0889568,0.04939 5.4242298,-1.671533 0.470323,-0.6058564 0.600874,-1.3337835 0.388301,-2.1626814 -0.53016,-2.0648418 -1.948018,-2.3092773 -2.025357,-2.318702 -0.0217,-0.00267 -0.04327,-0.0034 -0.06456,-0.00267 z" />
</svg>
