<?xml version="1.0" encoding="UTF-8" standalone="no"?>
<svg
   xmlns:dc="http://purl.org/dc/elements/1.1/"
   xmlns:cc="http://creativecommons.org/ns#"
   xmlns:rdf="http://www.w3.org/1999/02/22-rdf-syntax-ns#"
   xmlns:svg="http://www.w3.org/2000/svg"
   xmlns="http://www.w3.org/2000/svg"
   version="1.1"
   width="100%"
   height="100%"
   viewBox="0 0 14 14"
   id="svg2">
  <metadata
     id="metadata8">
    <rdf:RDF>
      <cc:Work
         rdf:about="">
        <dc:format>image/svg+xml</dc:format>
        <dc:type
           rdf:resource="http://purl.org/dc/dcmitype/StillImage" />
        <dc:title></dc:title>
      </cc:Work>
    </rdf:RDF>
  </metadata>
  <defs
     id="defs6" />
  <rect
     width="14"
     height="14"
     x="0"
     y="0"
     id="canvas"
     style="fill:none;stroke:none;visibility:hidden" />
  <path
     style="fill:#000000;fill-opacity:1;stroke-width:0.14"
     id="ranger-station"
     d="M 3.3145035,0 2.7074724,0.558633 V 1.052188 H 4.977277 V 0.558633 L 4.3686055,0 Z m 0.5288284,1.294727 c 0,0 -0.9903165,0.0099 -1.8101563,0.140547 0,0 -0.00677,0.187318 0.083672,0.274258 l 0.7593356,-0.03008 c -0.026597,0.09198 -0.041832,0.190557 -0.041832,0.290938 0,0.56364 0.4519242,1.020468 1.0089841,1.020468 0.55874,0 1.0103514,-0.456828 1.0103514,-1.020468 0,-0.100381 -0.014954,-0.198958 -0.041838,-0.290938 l 0.7609766,0.03008 c 0.086799,-0.08694 0.08039,-0.274258 0.08039,-0.274258 C 4.8335149,1.304654 3.8449728,1.294727 3.8449728,1.294727 Z m 7.5744921,1.461797 c -0.210839,0 -0.381445,0.170785 -0.381445,0.379805 0,0.1183 0.05383,0.222164 0.136992,0.292304 V 6.730117 L 9.8652452,5.730977 7.0917695,7.872266 V 11.85871 H 12.669075 V 7.872266 L 11.631926,7.080118 V 4.902735 c 0.09604,0.01442 0.3097,0.02147 0.699179,-0.0782 0,0 0.29114,-0.13221 0.67922,0.13043 0,0 0.08205,0.06337 0.600468,0.404687 V 3.999847 C 13.092233,3.660207 12.993644,3.591331 12.993644,3.591331 12.605564,3.332052 12.314426,3.462543 12.314426,3.462543 c -0.369039,0.09338 -0.5796,0.09244 -0.6825,0.08011 v -0.09023 c 0.09982,-0.06874 0.16543,-0.184214 0.16543,-0.316094 0,-0.20902 -0.170511,-0.379805 -0.379532,-0.379805 z M 2.6186052,3.275508 c 0,0 -0.1940836,-8.3e-5 -0.4298437,0.289298 L 0.49399625,5.398204 c 0,0 -0.25074483,0.194074 0.0235134,0.511875 L 2.5215331,7.878828 V 8.237031 H 5.114541 V 7.878828 L 7.1182909,5.910079 C 7.3926911,5.592138 7.1418039,5.398204 7.1418039,5.398204 L 5.4473119,3.564806 C 5.2114118,3.275425 5.0174683,3.275508 5.0174683,3.275508 Z M 2.4961051,4.636953 c 0.00879,0.0012 0.020504,0.01178 0.032263,0.04867 l 0.024884,2.238086 c 0,0 -0.2507839,-0.03326 -0.6573436,-0.568477 0,0 -0.2994494,-0.550637 -0.3562893,-0.640937 L 1.4677052,5.583868 2.4813381,4.64379 c 0,0 0.00599,-0.008 0.014764,-0.0069 z m 2.6438675,0 c 0.00879,-0.0013 0.014764,0.0069 0.014764,0.0069 l 1.013633,0.940081 -0.071914,0.13043 C 6.0396146,5.804804 5.7401669,6.355028 5.7401669,6.355028 5.3336067,6.890247 5.0828233,6.923778 5.0828233,6.923778 l 0.024884,-2.238086 c 0.01176,-0.03682 0.023483,-0.04741 0.032263,-0.04868 z M 2.5215349,8.616836 2.5852459,14 H 3.4449336 L 3.6792692,10.050195 H 3.983605 L 4.2581367,14 h 0.7894139 l 0.070274,-5.383164 z" />
</svg>
