<?xml version="1.0" encoding="UTF-8" standalone="no"?>
<svg
   xmlns:dc="http://purl.org/dc/elements/1.1/"
   xmlns:cc="http://creativecommons.org/ns#"
   xmlns:rdf="http://www.w3.org/1999/02/22-rdf-syntax-ns#"
   xmlns:svg="http://www.w3.org/2000/svg"
   xmlns="http://www.w3.org/2000/svg"
   id="svg2"
   viewBox="0 0 14 14"
   height="100%"
   width="100%"
   version="1.1">
  <metadata
     id="metadata8">
    <rdf:RDF>
      <cc:Work
         rdf:about="">
        <dc:format>image/svg+xml</dc:format>
        <dc:type
           rdf:resource="http://purl.org/dc/dcmitype/StillImage" />
        <dc:title></dc:title>
      </cc:Work>
    </rdf:RDF>
  </metadata>
  <defs
     id="defs6" />
  <rect
     style="fill:none;stroke:none;visibility:hidden"
     id="canvas"
     y="0"
     x="0"
     height="14"
     width="14" />
  <path
     style="fill:#000000;fill-opacity:1;stroke-width:0.13999555"
     id="whale-watching"
     d="M 8.2518939,4.4110186e-4 C 8.1539639,-0.0041589 8.0496819,0.0268411 7.9656139,0.1226641 l -2.25524,2.558747 c -0.494325,0.524563 -0.08084,1.086138 -0.09078,1.082778 -0.766615,-0.275651 -1.667964,-0.09073 -2.214226,0.134527 l -1.862871,0.94497 c -0.184934,0.07728 -0.265735,0.312789 -0.168158,0.470844 0.30939,0.494185 1.334833,0.497612 3.471725,0.2655 3.45243,-0.370009 3.455946,5.1616489 3.452586,5.8442669 0.127676,-0.02688 0.255452,-0.04047 0.386628,-0.04047 0.30603,0 0.598481,0.07066 0.8574732,0.188393 0.252272,0.114236 0.5381469,0.181557 0.8339579,0.181557 0.29259,0 0.578131,-0.06718 0.830403,-0.181557 0.178074,-0.08064 0.369927,-0.144694 0.575021,-0.171713 C 11.671116,8.0548931 8.1809719,5.0687841 8.0161979,4.9142291 7.8447029,4.7595331 7.6865779,4.4199501 7.7974549,4.0198431 l 0.833958,-2.757256 c 0.147975,-0.426987 0.07385,-0.998781 -0.131246,-1.170276 -0.05887,-0.04704 -0.150347,-0.08723 -0.248273,-0.0918699981 z M 1.9354149,12.382392 c -0.30267,0 -0.595121,0.07066 -0.857472,0.188392 -0.252272,0.114376 -0.534726,0.181557 -0.830677,0.181557 v 1.247656 c 0.295951,0 0.578545,-0.06759 0.830677,-0.181831 0.262351,-0.121096 0.554942,-0.1914 0.857472,-0.1914 0.306031,0 0.598481,0.0703 0.857473,0.1914 0.252272,0.114377 0.534866,0.181831 0.830677,0.181831 0.29427,0 0.576491,-0.06759 0.828763,-0.181831 0.262351,-0.121096 0.554802,-0.1914 0.857472,-0.1914 0.306031,0 0.598621,0.0703 0.857473,0.1914 0.252132,0.114377 0.534726,0.181831 0.830677,0.181831 0.29581,0 0.580865,-0.06759 0.833137,-0.181831 0.258992,-0.121096 0.551388,-0.1914 0.853919,-0.1914 0.30603,0 0.59848,0.0703 0.8574722,0.1914 0.252272,0.114377 0.5381469,0.181831 0.8339579,0.181831 0.292591,0 0.578405,-0.06759 0.830677,-0.181831 0.258992,-0.121096 0.551302,-0.1914 0.857472,-0.1914 0.30253,0 0.594987,0.0703 0.857199,0.1914 0.252272,0.114377 0.534999,0.181831 0.83095,0.181831 v -1.247656 c -0.296091,0 -0.578678,-0.06732 -0.83095,-0.181557 -0.262212,-0.117736 -0.554669,-0.188392 -0.857199,-0.188392 -0.30617,0 -0.59848,0.07066 -0.857472,0.188392 -0.252272,0.114376 -0.538086,0.181557 -0.830677,0.181557 -0.295811,0 -0.5816859,-0.06732 -0.8339579,-0.181557 -0.2589922,-0.117736 -0.5514422,-0.188392 -0.8574722,-0.188392 -0.302671,0 -0.594927,0.07066 -0.853919,0.188392 -0.252272,0.114376 -0.537327,0.181557 -0.833137,0.181557 -0.295951,0 -0.578545,-0.06732 -0.830677,-0.181557 -0.258992,-0.117736 -0.551442,-0.188392 -0.857473,-0.188392 -0.30267,0 -0.595121,0.07066 -0.857472,0.188392 -0.252272,0.114376 -0.534493,0.181557 -0.828763,0.181557 -0.295951,0 -0.578405,-0.06732 -0.830677,-0.181557 -0.258992,-0.117736 -0.551442,-0.188392 -0.857473,-0.188392 z" />
</svg>
