<?xml version="1.0" encoding="UTF-8" standalone="no"?>
<svg
   xmlns:dc="http://purl.org/dc/elements/1.1/"
   xmlns:cc="http://creativecommons.org/ns#"
   xmlns:rdf="http://www.w3.org/1999/02/22-rdf-syntax-ns#"
   xmlns:svg="http://www.w3.org/2000/svg"
   xmlns="http://www.w3.org/2000/svg"
   id="svg2"
   viewBox="0 0 14 14"
   height="100%"
   width="100%"
   version="1.1">
  <metadata
     id="metadata8">
    <rdf:RDF>
      <cc:Work
         rdf:about="">
        <dc:format>image/svg+xml</dc:format>
        <dc:type
           rdf:resource="http://purl.org/dc/dcmitype/StillImage" />
        <dc:title></dc:title>
      </cc:Work>
    </rdf:RDF>
  </metadata>
  <defs
     id="defs6" />
  <rect
     style="fill:none;stroke:none;visibility:hidden"
     id="canvas"
     y="0"
     x="0"
     height="14"
     width="14" />
  <path
     style="fill:#000000;fill-opacity:1;stroke-width:0.1399972"
     id="wreck"
     d="M 5.288449,1.656728 4.505066,1.985393 5.138882,3.496105 C 4.469975,3.77666 3.771175,4.070312 3.771175,4.070312 L 4.10148,4.853969 5.467547,4.279488 6.732444,7.290522 C 4.129896,8.38096 1.593461,9.459931 1.749418,9.459931 c 0.315414,0 0.617532,0.07296 0.886467,0.197418 0.262355,0.117878 0.557751,0.185934 0.863225,0.185934 0.305474,0 0.60087,-0.06806 0.863225,-0.185934 0.265574,-0.124457 0.571052,-0.197418 0.886466,-0.197418 0.315414,0 0.617593,0.07296 0.889748,0.197418 0.258995,0.117878 0.55447,0.185934 0.859944,0.185934 0.305474,0 0.600737,-0.06806 0.862951,-0.185934 0.268935,-0.124457 0.571115,-0.197418 0.889748,-0.197418 0.315414,0 0.617532,0.07296 0.886467,0.197418 0.262215,0.117878 0.557751,0.185934 0.863225,0.185934 0.08624,0 0.169226,-0.01822 0.252104,-0.02816 0.156097,-0.03318 0.312036,-0.04795 0.461553,-0.107733 0.0032,-0.0017 0.0068,-0.0032 0.01012,-0.0049 0.275514,-1.552009 0.916271,-4.659555 0.916271,-4.659555 0,0 -2.231297,0.919506 -4.62483,1.918946 L 6.251205,3.948934 7.5295,3.413007 7.200835,2.629351 6.342531,2.989734 c 0,0 -0.170936,0.07124 -0.419991,0.175817 z m -3.539031,9.009859 c -0.315274,0 -0.62054,0.07309 -0.889474,0.197691 C 0.597729,10.982156 0.305474,11.051853 0,11.051853 v 1.291419 c 0.305474,0 0.597596,-0.06806 0.85967,-0.185934 0.268795,-0.124597 0.574334,-0.197418 0.889748,-0.197418 0.315414,0 0.617532,0.07282 0.886467,0.197418 0.262355,0.117878 0.557751,0.185934 0.863225,0.185934 0.305474,0 0.60087,-0.06806 0.863225,-0.185934 0.265574,-0.124597 0.571192,-0.197418 0.886466,-0.197418 0.315274,0 0.617454,0.07282 0.889748,0.197418 0.258995,0.117878 0.554196,0.185934 0.85967,0.185934 0.305474,0 0.601011,-0.06806 0.863225,-0.185934 0.268795,-0.124597 0.571115,-0.197418 0.889748,-0.197418 0.315414,0 0.617532,0.07282 0.886467,0.197418 0.262215,0.117878 0.557477,0.185934 0.862951,0.185934 0.305474,0 0.597791,-0.06806 0.863225,-0.185934 0.265575,-0.124597 0.571193,-0.197418 0.886467,-0.197418 0.315274,0 0.61718,0.07282 0.889474,0.197418 0.258995,0.117878 0.55447,0.185934 0.859944,0.185934 H 14 v -1.291419 c -0.305473,0 -0.600948,-0.0697 -0.859943,-0.187575 -0.272295,-0.124597 -0.574334,-0.197691 -0.889748,-0.197691 -0.315414,0 -0.620892,0.07309 -0.886467,0.197691 -0.265434,0.117878 -0.557477,0.187575 -0.862951,0.187575 -0.305474,0 -0.60101,-0.0697 -0.863225,-0.187575 -0.268935,-0.124597 -0.571053,-0.197691 -0.886467,-0.197691 -0.318633,0 -0.620813,0.07309 -0.889748,0.197691 -0.262214,0.117878 -0.557477,0.187575 -0.862951,0.187575 -0.305474,0 -0.600949,-0.0697 -0.859944,-0.187575 -0.272155,-0.124597 -0.574334,-0.197691 -0.889748,-0.197691 -0.315414,0 -0.620892,0.07309 -0.886466,0.197691 -0.262355,0.117878 -0.557751,0.187575 -0.863225,0.187575 -0.305474,0 -0.60087,-0.0697 -0.863225,-0.187575 C 2.366957,10.739681 2.064699,10.666587 1.749425,10.666587 Z" />
</svg>
