<?xml version="1.0" encoding="UTF-8" standalone="no"?>
<!-- Created with Inkscape (http://www.inkscape.org/) -->

<svg
   xmlns:dc="http://purl.org/dc/elements/1.1/"
   xmlns:cc="http://creativecommons.org/ns#"
   xmlns:rdf="http://www.w3.org/1999/02/22-rdf-syntax-ns#"
   xmlns:svg="http://www.w3.org/2000/svg"
   xmlns="http://www.w3.org/2000/svg"
   id="svg2"
   viewBox="0 0 14 14"
   height="100%"
   width="100%"
   version="1.1">
  <metadata
     id="metadata8">
    <rdf:RDF>
      <cc:Work
         rdf:about="">
        <dc:format>image/svg+xml</dc:format>
        <dc:type
           rdf:resource="http://purl.org/dc/dcmitype/StillImage" />
        <dc:title></dc:title>
      </cc:Work>
    </rdf:RDF>
  </metadata>
  <defs
     id="defs6" />
  <rect
     style="fill:none;stroke:none;visibility:hidden"
     id="canvas"
     y="0"
     x="0"
     height="14"
     width="14" />
  <path
     d="m 8.8189168,7.154998 c 1.5582002,-0.547 2.6271002,-2.0044 2.6800002,-3.655 H 2.4989168 c 0.053,1.6299 1.0978,3.0728 2.63,3.631 l -0.707,1.413 c -1.3571,-0.2355 -2.6482,0.6737 -2.8837,2.0308 -0.2355,1.3571 0.6737,2.6482 2.0308,2.8837 0.9226,0.1602 1.8572,-0.21 2.4199,-0.9585 h 4.2230002 l 0.335,0.717 c 0.0836,0.1735 0.2594,0.2836 0.452,0.283 0.0733,3e-4 0.1457,-0.0158 0.212,-0.047 0.2497,-0.117 0.3575,-0.4141 0.241,-0.664 z m -4.82,5.095 c -0.6904,0 -1.25,-0.5596 -1.25,-1.25 0,-0.6904 0.5596,-1.25 1.25,-1.25 0.6904,0 1.25,0.5596 1.25,1.25 -0.0016,0.6897 -0.5603,1.2484 -1.25,1.25 z m 2.45,-0.75 c 0.2066,-1.007 -0.2268,-2.0374 -1.091,-2.594 l 0.741,-1.483 c 0.577,0.1042 1.168,0.1042 1.745,0 l 1.9,4.07 z m -2.2,-11.00000002 c -0.1381,0 -0.25,0.1119 -0.25,0.25 0,0.50000002 -0.5,0.50000002 -0.5,0.50000002 -1,0 -1,1 -1,1 0,0.1381 0.1119,0.25 0.25,0.25 0.1381,0 0.25,-0.1119 0.25,-0.25 0,-0.5 0.5,-0.5 0.5,-0.5 1,0 1,-1.00000002 1,-1.00000002 0,-0.1381 -0.1119,-0.25 -0.25,-0.25 z m 2,0 c -0.1381,0 -0.25,0.1119 -0.25,0.25 0,0.50000002 -0.5,0.50000002 -0.5,0.50000002 -1,0 -1,1 -1,1 0,0.1381 0.1119,0.25 0.25,0.25 0.1381,0 0.25,-0.1119 0.25,-0.25 0,-0.5 0.5,-0.5 0.5,-0.5 1,0 1,-1.00000002 1,-1.00000002 0,-0.1381 -0.1119,-0.25 -0.25,-0.25 z m 2,0 c -0.1381,0 -0.25,0.1119 -0.25,0.25 0,0.50000002 -0.5,0.50000002 -0.5,0.50000002 -1,0 -1,1 -1,1 0,0.1381 0.1119,0.25 0.25,0.25 0.1381,0 0.25,-0.1119 0.25,-0.25 0,-0.5 0.5,-0.5 0.5,-0.5 1,0 1,-1.00000002 1,-1.00000002 0,-0.1381 -0.1119,-0.25 -0.25,-0.25 z m 2.0000002,0 c -0.1381,0 -0.2500002,0.1119 -0.2500002,0.25 0,0.50000002 -0.5,0.50000002 -0.5,0.50000002 -1,0 -1,1 -1,1 0,0.1381 0.1119,0.25 0.25,0.25 0.1381,0 0.25,-0.1119 0.25,-0.25 0,-0.5 0.5,-0.5 0.5,-0.5 1.0000002,0 1.0000002,-1.00000002 1.0000002,-1.00000002 0,-0.1381 -0.1119,-0.25 -0.25,-0.25 z m 2,0 c -0.1381,0 -0.25,0.1119 -0.25,0.25 0,0.50000002 -0.5,0.50000002 -0.5,0.50000002 -1,0 -1,1 -1,1 0,0.1381 0.1119,0.25 0.25,0.25 0.1381,0 0.25,-0.1119 0.25,-0.25 0,-0.5 0.5,-0.5 0.5,-0.5 1,0 1,-1.00000002 1,-1.00000002 0,-0.1381 -0.1119,-0.25 -0.25,-0.25 z"
     id="bbq"
     style="fill:#000000;fill-opacity:1;stroke:none" />
</svg>
