<?xml version="1.0" encoding="UTF-8" standalone="no"?>
<svg
   xmlns:dc="http://purl.org/dc/elements/1.1/"
   xmlns:cc="http://creativecommons.org/ns#"
   xmlns:rdf="http://www.w3.org/1999/02/22-rdf-syntax-ns#"
   xmlns:svg="http://www.w3.org/2000/svg"
   xmlns="http://www.w3.org/2000/svg"
   id="svg2"
   viewBox="0 0 14 14"
   height="100%"
   width="100%"
   version="1.1">
  <metadata
     id="metadata8">
    <rdf:RDF>
      <cc:Work
         rdf:about="">
        <dc:format>image/svg+xml</dc:format>
        <dc:type
           rdf:resource="http://purl.org/dc/dcmitype/StillImage" />
        <dc:title></dc:title>
      </cc:Work>
    </rdf:RDF>
  </metadata>
  <defs
     id="defs6" />
  <rect
     style="fill:none;stroke:none;visibility:hidden"
     id="canvas"
     y="0"
     x="0"
     height="14"
     width="14" />
  <path
     id="shower"
     d="M 1.0804806,0 0.29209879,0.78506204 0.68379999,1.1784234 0.44147642,1.9966809 0.83317749,2.386722 2.7203144,0.45809161 2.3286132,0.06638995 1.4738415,0.39004194 Z M 3.01741,0.83319512 C 2.84269,0.8588164 2.7194678,1.0220811 2.743551,1.1983408 2.7690312,1.3746005 2.9340962,1.4993815 3.110356,1.4705396 3.2881554,1.4481389 3.4099721,1.2816544 3.3842148,1.1053947 3.3585945,0.9292752 3.1921297,0.80757392 3.01741,0.83319512 Z M 4.155999,1.2879667 C 3.9717599,1.3138683 3.8414451,1.4904298 3.8672025,1.6763491 3.8928228,1.8590485 4.0663453,1.9890082 4.2522647,1.9601661 4.4381841,1.9344091 4.5683652,1.7625427 4.5410613,1.5767636 4.513902,1.3909837 4.3403794,1.2624899 4.155999,1.2879667 Z M 2.5311029,1.3526955 C 2.3548432,1.3591539 2.2143868,1.5084862 2.224049,1.687965 2.2304904,1.8610056 2.3847187,1.9995575 2.5609784,1.9900397 2.7372381,1.9835814 2.8745306,1.8326896 2.8663726,1.65643 2.8583929,1.4803104 2.7058219,1.3431778 2.5311029,1.3526955 Z M 5.2912688,1.7427391 C 5.097369,1.7715811 4.9620348,1.953938 4.989194,2.1493776 5.0164944,2.3417374 5.2003936,2.4802944 5.395833,2.4514525 5.5912727,2.4226105 5.7267497,2.2434726 5.6979077,2.0448132 5.6690682,1.8493736 5.4851676,1.7138971 5.2912688,1.7427391 Z M 2.0414763,1.8705394 C 1.8636769,1.8608773 1.7157243,1.9996739 1.7062067,2.1759336 1.6966865,2.3521925 1.8336814,2.4983662 2.0099411,2.5078838 2.1860605,2.5207667 2.3388826,2.380409 2.3468705,2.2041492 2.3565309,2.0280298 2.217736,1.8769978 2.0414763,1.8705394 Z M 3.4124306,1.9933616 C 3.2217516,2.0028793 3.0723225,2.1629674 3.0804804,2.3551871 3.08846,2.5443263 3.2532861,2.6916752 3.4439658,2.6821575 3.6346457,2.6758691 3.7807546,2.5126511 3.7725966,2.3236513 3.7630763,2.1314317 3.5998906,1.9838439 3.4124306,1.9933616 Z m 3.0141079,0.204149 C 6.2231185,2.2263527 6.0823439,2.4189666 6.1111857,2.6240665 6.1384853,2.8291657 6.3325218,2.969921 6.536082,2.9410792 6.7411811,2.9090165 6.8834745,2.7196223 6.8530943,2.5145233 6.8242542,2.3095635 6.6316376,2.1655925 6.4265385,2.1975106 Z M 1.5551693,2.3900413 C 1.3740096,2.3644201 1.212444,2.4859812 1.1883644,2.662241 1.161205,2.8417205 1.2843037,2.9985455 1.4605636,3.0273857 1.6368232,3.0562277 1.8017481,2.9282269 1.8273684,2.7551871 1.8529897,2.5789273 1.731429,2.4124411 1.5551693,2.3900413 Z m 2.7369294,0.243984 c -0.2051001,0.00952 -0.3665086,0.1817222 -0.3568464,0.3900412 0.00798,0.2018801 0.1866011,0.3597248 0.3917012,0.350208 0.205099,-0.00966 0.3615293,-0.183183 0.3518671,-0.3850631 -0.0112,-0.208319 -0.1848427,-0.3648483 -0.3867219,-0.3551861 z m 3.2730288,0.018254 C 7.352048,2.6843415 7.2041767,2.8874512 7.2348371,3.1020715 7.2635372,3.3136112 7.4665708,3.4644247 7.6796506,3.432362 7.8925898,3.4002993 8.0403213,3.2006482 8.0099412,2.9858887 7.9777426,2.7711291 7.779887,2.6234369 7.5651275,2.6522793 Z M 2.710356,2.7302893 C 2.5213562,2.7240014 2.3631717,2.8680216 2.3535096,3.0539409 2.3423102,3.2429407 2.4897009,3.4029295 2.6771609,3.4124472 2.8644799,3.4221093 3.0258494,3.2747161 3.0340074,3.088796 3.0435277,2.8997962 2.897815,2.7398075 2.710356,2.7302893 Z M 8.7003976,3.1087134 C 8.4775175,3.1407761 8.3247664,3.3508244 8.3568291,3.5751033 8.3872092,3.7961633 8.5989597,3.954054 8.8215594,3.9219912 9.0444387,3.8899285 9.2003884,3.6815408 9.1667875,3.4572609 9.1345889,3.2328409 8.9245372,3.0766507 8.7003976,3.1087134 Z M 5.1734264,3.2746881 C 4.9540466,3.287571 4.7838257,3.4700861 4.7933435,3.6912854 4.8030038,3.9091244 4.9920806,4.0760518 5.2116006,4.0663896 5.4311199,4.0567276 5.5979047,3.8711906 5.5867043,3.6564311 5.5753639,3.4321521 5.3897258,3.2650268 5.1734264,3.2746881 Z M 2.0099411,3.4639004 C 1.8192613,3.4382791 1.6488589,3.5668765 1.6215593,3.7560165 1.5942554,3.9483756 1.7212371,4.1139984 1.9086963,4.1460585 2.0976961,4.1749005 2.2747771,4.0397223 2.3003975,3.8539423 2.3277014,3.6649426 2.197401,3.4895207 2.0099411,3.4639004 Z m 7.8290448,0.099585 C 9.6065879,3.5987692 9.4468792,3.8157127 9.48048,4.0497923 9.5109961,4.2835924 9.7313489,4.4467576 9.9634679,4.4116187 10.194187,4.3763353 10.358916,4.1593501 10.323633,3.9286306 10.290033,3.6946904 10.072926,3.5314231 9.8389859,3.5634854 Z m -6.46141,0.028214 C 3.1773767,3.5820368 3.0103529,3.7366082 2.9991526,3.9352675 2.9879524,4.1371468 3.1424019,4.3025129 3.3410614,4.3120307 3.5414007,4.324769 3.7131563,4.1687811 3.7211444,3.9701217 3.730804,3.7714623 3.5762361,3.601361 3.3775759,3.591699 Z M 6.0547542,3.91535 C 5.8208148,3.9250151 5.6352323,4.1230045 5.6481152,4.3601638 5.6562407,4.5941031 5.8606488,4.7747062 6.0945883,4.7618234 6.3285276,4.7521611 6.5073495,4.5496284 6.4929285,4.3219893 6.4832689,4.081612 6.2839338,3.9056906 6.0547542,3.9153526 Z M 4.0464554,4.454772 C 3.8349159,4.4418892 3.6578003,4.6051981 3.6464555,4.8165975 c -0.01134,0.2114004 0.1519661,0.3870185 0.3618257,0.3966806 0.2115397,0.012738 0.3917571,-0.1503274 0.4,-0.3585061 0.00952,-0.2114004 -0.1519661,-0.3903379 -0.3618258,-0.4 z m 3.6746888,0.063073 c -0.8909584,0 -1.613278,0.7207991 -1.613278,1.6116179 -1.402e-4,0.890818 0.7223196,1.6116179 1.613278,1.6116179 0.890819,0 1.6116181,-0.7207999 1.6116181,-1.6116179 0,-0.890818 -0.7206598,-1.6116179 -1.6116181,-1.6116179 z M 13.092099,4.536098 C 12.92249,4.538388 12.738697,4.611169 12.567618,4.7834013 L 9.3676173,7.9916985 H 6.1891941 c -0.2564794,0 -0.4908607,0.099102 -0.6639004,0.2655602 L 3.2862895,10.501245 c -0.097716,0.125019 -0.1560165,0.278312 -0.1560165,0.448133 0,0.397318 0.3212335,0.717013 0.7170123,0.717013 H 5.7493599 V 14 h 4.207468 L 9.9551279,9.1966801 13.462182,5.6780084 C 13.976472,5.1613048 13.600888,4.529196 13.092057,4.5360997 Z M 2.4647127,4.5411145 C 2.2628327,4.5122689 2.0802743,4.6495063 2.0514348,4.8481648 2.0225928,5.0500449 2.1598294,5.2293834 2.3584888,5.2614435 2.5571481,5.2935062 2.7461269,5.1498284 2.7734265,4.9543888 2.8022685,4.7557295 2.6650522,4.5699512 2.4647127,4.5411109 Z M 4.7136753,5.3128959 C 4.4926155,5.3033782 4.3032989,5.4734387 4.2920987,5.694638 4.2793587,5.9221377 4.4511226,6.1066973 4.6721816,6.1162149 4.8949216,6.1258771 5.0840962,5.9605508 5.0937583,5.7361316 5.1034188,5.5118518 4.9364146,5.3256343 4.7136753,5.3128959 Z M 2.9194847,5.6133102 C 2.7079458,5.5844684 2.5150099,5.7288821 2.4846298,5.9402815 2.4542497,6.1550411 2.5982814,6.344736 2.8082812,6.3767962 3.0198211,6.4122155 3.2159556,6.2582441 3.2447958,6.0531441 3.2736378,5.8416053 3.1310243,5.6453704 2.9194847,5.6133102 Z M 5.3808954,6.1743058 C 5.148636,6.161423 4.9507377,6.3452468 4.9394016,6.5759663 4.926522,6.8131255 5.1070019,7.0110014 5.3394015,7.0174597 5.5733409,7.0303426 5.7727373,6.8547185 5.7808954,6.6207792 c 0.0112,-0.2371593 -0.1660607,-0.4335905 -0.4,-0.4464734 z M 3.3759161,6.6904886 C 3.1531771,6.6584259 2.9465655,6.8129973 2.9145053,7.0340572 2.8824428,7.2615567 3.0370138,7.4598092 3.2580738,7.4921487 3.4792731,7.5274321 3.6874446,7.3700192 3.7178249,7.1518995 3.7498875,6.9276207 3.5986562,6.7225487 3.3759161,6.6904886 Z M 3.8306879,7.7676668 C 3.5984285,7.7325279 3.3782198,7.8923738 3.3477004,8.126173 3.3107428,8.363193 3.4739472,8.5771011 3.7062065,8.6091611 3.9401459,8.6475207 4.1620144,8.4781545 4.1908538,8.2506549 4.2261372,8.0136358 4.0661671,7.7997269 3.8306879,7.7676668 Z m 2.685477,2.1311212 h 0.7452283 c 0.1747199,0 0.4000004,0.22032 0.4000004,0.39336 v 1.370956 c 0,0.172899 -0.2252805,0.398339 -0.4000004,0.398339 l -0.00166,-0.0034 H 6.5178247 l -0.00166,0.0034 c -0.1745797,0 -0.3153527,-0.228621 -0.3153527,-0.401659 1.0652583,0 1.071698,-1.395852 0,-1.395852 0.017641,-0.156939 0.1519733,-0.365144 0.3153529,-0.365144 z"
     style="fill:#000000;stroke-width:0.13999972" />
</svg>
